<?xml version="1.0" encoding="UTF-8"?>
<svg width="186px" height="155px" viewBox="0 0 186 155" version="1.1" xmlns="http://www.w3.org/2000/svg" xmlns:xlink="http://www.w3.org/1999/xlink">
    <!-- Generator: Sketch 54 (76480) - https://sketchapp.com -->
    <title>“ copy</title>
    <desc>Created with Sketch.</desc>
    <g id="Explore" stroke="none" stroke-width="1" fill="none" fill-rule="evenodd" fill-opacity="0">
        <g id="Desktop---Team-page--" transform="translate(-627.000000, -2586.000000)" fill="#FF2E29" fill-rule="nonzero" stroke="#ADA091">
            <g id="Group" transform="translate(348.000000, 2586.000000)">
                <g id="Group-17">
                    <path d="M454.961805,6.28187131 L451.974905,0.721745775 C445.185374,5.2646501 437.7657,10.3601481 429.715754,16.0083412 C421.511814,21.7645838 413.964113,28.4254455 407.072017,35.9916554 C400.188446,43.5485068 394.369239,52.256737 389.614065,62.1181293 C384.872343,71.9516222 382.5,83.2672123 382.5,96.0702875 C382.5,114.776441 386.910917,129.186518 395.716708,139.32061 C404.516734,149.448068 415.084681,154.5 427.452381,154.5 C431.684933,154.5 436.001147,153.846966 440.402292,152.539861 C444.789589,151.236869 448.768692,149.201948 452.342637,146.433778 C455.906801,143.673185 458.82465,140.098551 461.097569,135.704771 C463.36406,131.323418 464.5,126.037028 464.5,119.840256 C464.5,113.643483 463.36406,108.357093 461.097569,103.97574 C458.820746,99.5744138 456.060907,95.9944712 452.818592,93.2320323 C449.573226,90.4669936 446.006403,88.4356314 442.115362,87.135572 C438.212362,85.8315172 434.477846,85.1805112 430.910714,85.1805112 C427.31787,85.1805112 423.72489,85.5079127 420.131313,86.1628245 C416.574992,86.8109465 413.345482,88.1057837 410.438515,90.0483124 L410.096917,90.2765787 L409.806747,89.9857264 C408.116823,88.2918349 406.441666,85.7731994 404.772815,82.4276603 C403.087726,79.0495687 402.25,74.6831653 402.25,69.3290735 C402.25,57.3053197 407.082488,46.5319637 416.726497,37.0319758 C426.228228,27.6721421 438.972765,17.4231339 454.961805,6.28187141 Z M351.961805,6.28187141 L348.974905,0.721745775 C342.185374,5.2646501 334.7657,10.3601481 326.715754,16.0083412 C318.511814,21.7645838 310.964113,28.4254455 304.072017,35.9916554 C297.188446,43.5485068 291.369239,52.256737 286.614065,62.1181293 C281.872343,71.9516222 279.5,83.2672123 279.5,96.0702875 C279.5,114.776441 283.910917,129.186518 292.716708,139.32061 C301.516734,149.448068 312.084681,154.5 324.452381,154.5 C328.684933,154.5 333.001147,153.846966 337.402292,152.539861 C341.789589,151.236869 345.768692,149.201948 349.342637,146.433778 C352.906801,143.673185 355.82465,140.098551 358.097569,135.704771 C360.36406,131.323418 361.5,126.037028 361.5,119.840256 C361.5,113.643483 360.36406,108.357093 358.097569,103.97574 C355.820746,99.5744138 353.060907,95.9944712 349.818592,93.2320323 C346.573226,90.4669936 343.006403,88.4356314 339.115362,87.135572 C335.212362,85.8315172 331.477846,85.1805112 327.910714,85.1805112 C324.31787,85.1805112 320.72489,85.5079127 317.131313,86.1628245 C313.574992,86.8109465 310.345482,88.1057837 307.438515,90.0483124 L307.096917,90.2765787 L306.806747,89.9857264 C305.116823,88.2918349 303.441666,85.7731994 301.772815,82.4276603 C300.087726,79.0495687 299.25,74.6831653 299.25,69.3290735 C299.25,57.3053197 304.082488,46.5319637 313.726497,37.0319758 C323.228228,27.6721421 335.972765,17.4231339 351.961805,6.28187141 Z" id="“-copy"></path>
                </g>
            </g>
        </g>
    </g>
</svg>